<svg id="SvgjsSvg1015" width="288" height="288" xmlns="http://www.w3.org/2000/svg" version="1.1" xmlns:xlink="http://www.w3.org/1999/xlink" xmlns:svgjs="http://svgjs.com/svgjs"><defs id="SvgjsDefs1016"></defs><g id="SvgjsG1017"><svg xmlns="http://www.w3.org/2000/svg" enable-background="new 0 0 512 512" viewBox="0 0 512 512" width="288" height="288"><polyline fill="#000000" points="201.226 329.837 187.854 468.724 352.004 300.947" class="colorefefef svgShape"></polyline><path fill="#000000" d="M17.167,213.188L481.072,26.559c13.494-5.429,27.662,6.186,24.986,20.483l-79.505,424.726c-2.542,13.578-18.569,19.633-29.454,11.128L201.226,329.837l-69.648-38.426L17.426,247.475C1.811,241.465,1.645,219.432,17.167,213.188z" class="colorefefef svgShape"></path><path d="M506.066,47.018L426.53,471.764c-2.504,13.585-18.539,19.657-29.407,11.135l-11.4-8.897c0.213-0.692,0.373-1.491,0.532-2.237l79.537-424.746c0.906-4.954-0.16-9.536-2.557-13.265l17.846-7.192C494.56,21.127,508.73,32.742,506.066,47.018z" opacity=".15" fill="#c0c0c0" class="color000 svgShape"></path><polygon fill="#000000" points="201.226 329.837 429.091 98.707 131.578 291.411 187.854 468.724" class="colord2d8d8 svgShape"></polygon><path d="M479.084,21.617L15.18,208.244c0,0,0,0-0.003,0c-20.026,8.06-19.805,36.45,0.336,44.203l111.763,43.016l55.501,174.875c1.131,3.586,6.025,5.018,8.875,2.12c122.674-125.38,61.914-63.28,79.482-81.235l122.686,95.872c13.936,10.886,34.674,3.279,37.97-14.346l79.506-424.728C514.744,29.572,496.497,14.611,479.084,21.617z M197.434,326.095c-0.732,0.741-1.396,2.032-1.511,3.231l-10.874,112.945l-47.161-148.597L391.08,129.674L197.434,326.095z M194.605,454.207c2.82-29.29,8.229-85.469,10.995-114.194l57.086,44.608L194.605,454.207z M500.823,46.061l-79.506,424.728c-1.806,9.657-13.206,13.951-20.937,7.91l-191.161-149.38l223.666-226.872c1.909-1.935,2.055-4.997,0.338-7.107c-1.714-2.107-4.747-2.586-7.026-1.106L130.96,285.464L19.341,242.505c-11.092-4.272-11.22-19.935-0.187-24.376L483.059,31.502C492.64,27.647,502.727,35.87,500.823,46.061z" fill="#c0c0c0" class="color000 svgShape"></path></svg></g></svg>